<?xml version="1.0" encoding="UTF-8"?><svg xmlns="http://www.w3.org/2000/svg" viewBox="0 0 640 640.16"><defs><style>.cls-1{fill:#fff;}.cls-2{fill:#ced4da;}.cls-3{fill:#4a696e;}.cls-4{fill:#ccc;stroke:#fff;}.cls-4,.cls-5{stroke-miterlimit:10;stroke-width:7px;}.cls-5{fill:none;stroke:#4a696e;}</style></defs><g id="Layer_6"><circle class="cls-2" cx="320" cy="319.63" r="310.19"/></g><g id="Layer_1"><line class="cls-5" x1="304.51" y1="314.87" x2="120.81" y2="478.03"/><line class="cls-4" x1="472.39" y1="455.95" x2="120.81" y2="478.03"/><line class="cls-4" x1="304.51" y1="314.87" x2="146.19" y2="241.46"/><line class="cls-4" x1="120.81" y1="478.03" x2="133.5" y2="228.59"/><line class="cls-5" x1="451.43" y1="122.51" x2="304.51" y2="314.87"/><circle class="cls-3" cx="304.51" cy="314.87" r="59.81"/><circle class="cls-1" cx="304.51" cy="314.87" r="31.98"/><circle class="cls-3" cx="451.43" cy="122.51" r="59.81"/><circle class="cls-1" cx="451.43" cy="122.51" r="31.98"/><circle class="cls-1" cx="133.5" cy="228.59" r="47.46"/><circle class="cls-2" cx="133.5" cy="228.59" r="25.38"/><circle class="cls-3" cx="120.81" cy="478.03" r="47.46"/><circle class="cls-1" cx="120.81" cy="478.03" r="25.38"/><circle class="cls-1" cx="472.39" cy="455.95" r="47.46"/><circle class="cls-2" cx="472.39" cy="455.95" r="25.38"/></g><g id="Layer_3"><path class="cls-3" d="m614.38,265.58l-128.23-70.07c-5.13-2.8-11.35-3.61-17.41-1.83l-77.12,22.62c-12.12,3.55-19.13,16.38-15.57,28.5l22.62,77.12c1.78,6.06,5.82,10.86,11.09,13.74l128.23,70.07c5.13,2.8,11.35,3.61,17.41,1.83,6.06-1.78,10.86-5.82,13.63-11.06l54.5-99.73c2.91-5.16,3.72-11.38,1.94-17.44-1.78-6.06-5.96-10.93-11.09-13.74Zm-190.07.95c-9.14,2.68-18.69-2.53-21.37-11.68s2.53-18.69,11.68-21.37c9.14-2.68,18.69,2.53,21.37,11.68s-2.53,18.69-11.68,21.37Z"/><path class="cls-1" d="m519.77,348.66c-14.29-7.67-22.31-22.39-22.1-37.53l32.8,17.6,11.81-8.33-42.25-22.67c.72-2.03,1.56-4,2.6-5.94s2.22-3.72,3.51-5.45l36.56,19.62,11.81-8.33-38.49-20.66c12.51-8.54,29.26-9.97,43.49-2.33,9.17,4.92,15.79,12.8,19.29,21.86l15.49-4.67c-4.68-13-14.04-24.4-27.14-31.43-22.32-11.98-48.9-7.83-66.62,8.25l-20.04-10.76-11.81,8.33,23.12,12.41c-1.24,1.76-2.36,3.57-3.4,5.51s-1.93,3.88-2.71,5.88l-17.42-9.35-11.81,8.33,25.74,13.81c-3.6,23.66,7.63,48.1,29.95,60.08,13.15,7.06,27.77,8.52,41.19,5.24l-4.73-15.52c-9.43,2.13-19.6,1-28.83-3.95Z"/></g></svg>