<?xml version="1.0" encoding="UTF-8"?><svg xmlns="http://www.w3.org/2000/svg" viewBox="0 0 640 640.16"><defs><style>.cls-1{fill:#fff;}.cls-2{fill:#ced4da;}.cls-3,.cls-4{fill:#4a696e;}.cls-4,.cls-5{stroke:#4a696e;stroke-miterlimit:10;stroke-width:7px;}.cls-5{fill:none;}</style></defs><g id="Layer_6"><circle class="cls-2" cx="320" cy="320.08" r="310.19"/><line class="cls-5" x1="350.04" y1="301.31" x2="85.94" y2="481.86"/><line class="cls-4" x1="469.73" y1="471.85" x2="85.94" y2="481.86"/><line class="cls-4" x1="346.5" y1="301.31" x2="135.98" y2="212.53"/><line class="cls-4" x1="85.94" y1="481.86" x2="135.98" y2="212.53"/><line class="cls-5" x1="542.86" y1="169.5" x2="346.5" y2="301.31"/><circle class="cls-3" cx="542.86" cy="169.5" r="54.24"/><circle class="cls-1" cx="542.86" cy="169.5" r="29"/><circle class="cls-3" cx="135.98" cy="212.53" r="43.03"/><circle class="cls-1" cx="135.98" cy="212.53" r="23.01"/><circle class="cls-3" cx="85.94" cy="481.86" r="43.03"/><circle class="cls-1" cx="85.94" cy="481.86" r="23.01"/><circle class="cls-3" cx="469.73" cy="471.85" r="43.03"/><circle class="cls-1" cx="469.73" cy="471.85" r="23.01"/><circle class="cls-3" cx="346.5" cy="301.31" r="54.24"/><circle class="cls-1" cx="346.5" cy="301.31" r="29"/></g><g id="Layer_2"><circle class="cls-1" cx="444.19" cy="232.51" r="50.55"/><path d="m444.19,195.11c-15.75,0-31.5,1.97-31.5,15.75v37.4c0,7.6,6.18,13.78,13.78,13.78l-5.91,5.91v1.97h8.78l7.87-7.87h14.84l7.87,7.87h7.87v-1.97l-5.91-5.91c7.6,0,13.78-6.18,13.78-13.78v-37.4c0-13.78-14.09-15.75-31.5-15.75Zm-17.72,59.06c-3.27,0-5.91-2.64-5.91-5.91s2.64-5.91,5.91-5.91,5.91,2.64,5.91,5.91-2.64,5.91-5.91,5.91Zm13.78-27.56h-19.69v-15.75h19.69v15.75Zm7.87,0v-15.75h19.69v15.75h-19.69Zm13.78,27.56c-3.27,0-5.91-2.64-5.91-5.91s2.64-5.91,5.91-5.91,5.91,2.64,5.91,5.91-2.64,5.91-5.91,5.91Z"/><circle class="cls-1" cx="291.35" cy="476.5" r="55.08"/><circle class="cls-1" cx="217.99" cy="385.1" r="55.08"/><circle class="cls-1" cx="110.96" cy="347.2" r="55.08"/><circle class="cls-1" cx="242.58" cy="248.26" r="50.09"/><path d="m248.39,219.15c4.25,0,7.73-3.48,7.73-7.73s-3.48-7.73-7.73-7.73-7.73,3.48-7.73,7.73,3.48,7.73,7.73,7.73Zm-14.31,13.15l-10.83,54.53h8.12l6.96-30.94,8.12,7.73v23.2h7.73v-29.01l-8.12-7.73,2.32-11.6c5.03,5.8,12.76,9.67,21.27,9.67v-7.73c-7.35,0-13.54-3.87-16.63-9.28l-3.87-6.19c-1.55-2.32-3.87-3.87-6.57-3.87-1.16,0-1.93.39-3.09.39l-20.11,8.51v18.18h7.73v-13.15l6.96-2.71"/><path d="m77.67,364.92c0,3.66,1.62,6.95,4.16,9.24v7.41c0,2.29,1.87,4.16,4.16,4.16h4.16c2.29,0,4.16-1.87,4.16-4.16v-4.16h33.29v4.16c0,2.29,1.87,4.16,4.16,4.16h4.16c2.29,0,4.16-1.87,4.16-4.16v-7.41c2.54-2.29,4.16-5.58,4.16-9.24v-41.61c0-14.56-14.9-16.64-33.29-16.64s-33.29,2.08-33.29,16.64v41.61Zm14.56,4.16c-3.45,0-6.24-2.79-6.24-6.24s2.79-6.24,6.24-6.24,6.24,2.79,6.24,6.24-2.79,6.24-6.24,6.24Zm37.45,0c-3.45,0-6.24-2.79-6.24-6.24s2.79-6.24,6.24-6.24,6.24,2.79,6.24,6.24-2.79,6.24-6.24,6.24Zm6.24-24.97h-49.93v-20.81h49.93v20.81Z"/><path d="m241.32,357.35h-59.86c-4.7,0-8.55,3.81-8.55,8.55v38.48h8.55c0,7.06,5.73,12.83,12.83,12.83s12.83-5.77,12.83-12.83h23.52c0,7.06,5.73,12.83,12.83,12.83s12.83-5.77,12.83-12.83h10.69v-21.38l-25.65-25.65Zm-59.86,25.65v-17.1h17.1v17.1h-17.1Zm12.83,27.79c-3.55,0-6.41-2.86-6.41-6.41s2.86-6.41,6.41-6.41,6.41,2.86,6.41,6.41-2.86,6.41-6.41,6.41Zm29.93-27.79h-17.1v-17.1h17.1v17.1Zm19.24,27.79c-3.55,0-6.41-2.86-6.41-6.41s2.86-6.41,6.41-6.41,6.41,2.86,6.41,6.41-2.86,6.41-6.41,6.41Zm-10.69-27.79v-17.1h4.28l17.1,17.1h-21.38Z"/><path d="m257.58,493.05c0,3.66,1.62,6.95,4.16,9.24v7.41c0,2.29,1.87,4.16,4.16,4.16h4.16c2.29,0,4.16-1.87,4.16-4.16v-4.16h33.29v4.16c0,2.29,1.87,4.16,4.16,4.16h4.16c2.29,0,4.16-1.87,4.16-4.16v-7.41c2.54-2.29,4.16-5.58,4.16-9.24v-41.61c0-14.56-14.9-16.64-33.29-16.64s-33.29,2.08-33.29,16.64v41.61Zm14.56,4.16c-3.45,0-6.24-2.79-6.24-6.24s2.79-6.24,6.24-6.24,6.24,2.79,6.24,6.24-2.79,6.24-6.24,6.24Zm37.45,0c-3.45,0-6.24-2.79-6.24-6.24s2.79-6.24,6.24-6.24,6.24,2.79,6.24,6.24-2.79,6.24-6.24,6.24Zm6.24-24.97h-49.93v-20.81h49.93v20.81Z"/></g></svg>