<?xml version="1.0" encoding="UTF-8"?><svg xmlns="http://www.w3.org/2000/svg" viewBox="0 0 640 640.16"><defs><style>.cls-1,.cls-2{fill:#fff;}.cls-3{fill:#ced4da;}.cls-4,.cls-5{fill:#4a696e;}.cls-2,.cls-5,.cls-6{stroke:#4a696e;stroke-miterlimit:10;stroke-width:7px;}.cls-6{fill:none;}</style></defs><g id="Layer_6"><circle class="cls-3" cx="320" cy="319.63" r="310.19"/></g><g id="Layer_5"><path class="cls-1" d="m455.58,401.39c-12.68-64.33-69.18-112.62-137.05-112.62-53.89,0-100.69,30.58-124,75.33-56.12,5.97-99.76,53.51-99.76,111.13,0,61.72,50.16,111.88,111.88,111.88h242.4c51.46,0,93.23-41.77,93.23-93.23s-38.22-89.13-86.7-92.48Z"/><path class="cls-4" d="m382.53,9.44h-125.06c-21.57,0-39.08,17.51-39.08,39.08v265.75c0,21.57,17.51,39.08,39.08,39.08h125.06c21.57,0,39.08-17.51,39.08-39.08V48.52c0-21.57-17.51-39.08-39.08-39.08Zm-62.53,328.28c-12.97,0-23.45-10.47-23.45-23.45s10.47-23.45,23.45-23.45,23.45,10.47,23.45,23.45-10.47,23.45-23.45,23.45Zm70.35-62.53h-140.69V56.34h140.69v218.86Z"/></g><g id="Layer_4"><line class="cls-6" x1="311.34" y1="459.06" x2="176.63" y2="551.16"/><line class="cls-5" x1="372.39" y1="546.05" x2="176.63" y2="551.16"/><line class="cls-5" x1="309.53" y1="459.06" x2="202.15" y2="413.78"/><line class="cls-5" x1="176.63" y1="551.16" x2="202.15" y2="413.78"/><line class="cls-6" x1="409.69" y1="391.83" x2="309.53" y2="459.06"/><circle class="cls-4" cx="409.69" cy="391.83" r="27.66"/><circle class="cls-1" cx="409.69" cy="391.83" r="14.79"/><circle class="cls-4" cx="202.15" cy="413.78" r="21.95"/><circle class="cls-1" cx="202.15" cy="413.78" r="11.74"/><circle class="cls-4" cx="176.63" cy="551.16" r="21.95"/><circle class="cls-1" cx="176.63" cy="551.16" r="11.74"/><circle class="cls-4" cx="372.39" cy="546.05" r="21.95"/><circle class="cls-1" cx="372.39" cy="546.05" r="11.74"/><line class="cls-6" x1="320" y1="157.06" x2="309.53" y2="459.06"/><circle class="cls-4" cx="309.53" cy="459.06" r="27.66"/><circle class="cls-1" cx="309.53" cy="459.06" r="14.79"/><circle class="cls-2" cx="320" cy="314.27" r="26.66"/><circle class="cls-4" cx="320" cy="159.55" r="27.66"/><circle class="cls-1" cx="320" cy="159.55" r="14.79"/></g></svg>