<?xml version="1.0" encoding="utf-8"?>
<!-- Generator: Adobe Illustrator 27.6.1, SVG Export Plug-In . SVG Version: 6.00 Build 0)  -->
<svg version="1.1" id="Layer_1" xmlns="http://www.w3.org/2000/svg" xmlns:xlink="http://www.w3.org/1999/xlink" x="0px" y="0px"
	 viewBox="0 0 200 73.1" style="enable-background:new 0 0 200 73.1;" xml:space="preserve">
<path d="M25,9c5.2,0,10.3,1.3,14.8,3.8v9c-5.4-3.3-10.3-4.9-14.5-4.9c-2.1-0.1-4.2,0.4-6,1.5c-1.4,0.9-2.2,2.4-2.2,4
	c0,2,1.3,3.8,4,5.5c0.8,0.5,3.6,1.9,8.7,4.2c4.3,2,7.4,4.2,9.3,6.8c2,2.6,3,5.8,2.9,9c0.1,4.2-1.7,8.2-4.8,10.8
	c-3.2,2.8-7.5,4.2-12.6,4.2c-2.9,0.1-5.9-0.3-8.7-1.1c-2.9-0.9-5.6-2.2-8.1-3.8v-10c5.6,4.7,10.9,7,15.9,7c2.1,0.1,4.2-0.5,6-1.6
	c1.5-0.9,2.4-2.5,2.4-4.2c0-2.4-1.3-4.4-4-5.9c-2.2-1.2-5-2.6-8.5-4.3c-3.6-1.5-6.7-3.7-9.3-6.6c-2-2.5-3.1-5.6-3.1-8.8
	c-0.2-4.1,1.7-8,4.9-10.6C15.3,10.3,19.7,9,25,9z"/>
<path d="M56,27v21.7c-0.1,1.9,0.5,3.8,1.7,5.2c1.2,1.2,2.8,1.9,4.5,1.8c1.6,0,3.2-0.5,4.5-1.4c1.5-1,2.7-2.4,3.5-4V27h9.2v35.1h-9.3
	v-4.8c-3.3,3.6-6.9,5.4-10.8,5.4c-3.4,0.1-6.7-1.2-9.1-3.7c-2.4-2.6-3.6-6.1-3.5-9.6V27C46.8,27,56,27,56,27z"/>
<path d="M95.2,9.6v19.7c2.7-1.9,6-3,9.3-2.9c3,0,5.9,0.8,8.4,2.3c2.5,1.5,4.6,3.8,5.9,6.4c1.4,2.9,2.1,6,2.1,9.2
	c0,5.8-1.7,10.3-5.2,13.6s-8.1,5-14.1,5c-5.4,0-10.7-1-15.6-3V9.6H95.2z M95.2,54.8c2.2,0.7,4.6,1.1,6.9,1c2.6,0.1,5.1-1.1,6.8-3.1
	c1.7-2.1,2.5-4.9,2.5-8.6c0.2-2.9-0.8-5.7-2.5-7.9c-1.6-2-4.1-3.1-6.7-3c-1.2,0-2.4,0.2-3.5,0.7c-1.2,0.6-2.4,1.3-3.5,2.2
	C95.2,36.2,95.2,54.8,95.2,54.8z"/>
<path d="M135.1,9.6v52.5h-9.2V9.6H135.1z"/>
<path d="M146.9,10.8c1.4,0,2.7,0.5,3.7,1.5c1,1,1.6,2.3,1.5,3.7c0,1.4-0.6,2.7-1.5,3.7c-1.9,2-5,2.2-7.1,0.3
	c-0.1-0.1-0.2-0.2-0.3-0.3c-1-1-1.6-2.3-1.6-3.7c0-1.4,0.6-2.8,1.6-3.7C144.2,11.4,145.5,10.8,146.9,10.8z M151.5,27v35.1h-9.2V27
	C142.2,27,151.5,27,151.5,27z"/>
<path d="M178.7,26.4c3.4-0.2,6.7,1.2,9,3.7c2.3,2.7,3.5,6.2,3.4,9.8v22.3h-9.2V40.8c0.1-1.9-0.5-3.9-1.6-5.4c-1.1-1.3-2.7-2.1-4.5-2
	c-1.4,0-2.8,0.5-4,1.3c-1.6,1.2-3,2.6-4.1,4.2v23.4h-9.2V27h9.2V32c1.4-1.8,3.2-3.2,5.2-4.3C174.7,26.8,176.7,26.3,178.7,26.4
	L178.7,26.4L178.7,26.4z"/>
</svg>
