<?xml version="1.0" encoding="UTF-8"?><svg id="Layer_1" xmlns="http://www.w3.org/2000/svg" viewBox="0 0 200 100"><path d="m25,24.5c5.18,0,10.28,1.33,14.81,3.84v9c-5.44-3.27-10.26-4.9-14.47-4.91-2.1-.12-4.2.4-6,1.49-1.38.86-2.2,2.38-2.16,4,0,2,1.33,3.83,4,5.5.75.5,3.65,1.9,8.69,4.21,4.31,2,7.41,4.25,9.32,6.76,1.95,2.59,2.96,5.76,2.86,9,.12,4.16-1.67,8.15-4.85,10.83-3.25,2.77-7.45,4.15-12.61,4.16-2.93.06-5.85-.32-8.67-1.11-2.86-.94-5.59-2.22-8.14-3.82v-10c5.61,4.67,10.9,7,15.87,7,2.12.1,4.22-.47,6-1.62,1.46-.91,2.35-2.52,2.35-4.24,0-2.43-1.33-4.41-4-5.94-2.21-1.2-5.05-2.64-8.53-4.32-3.55-1.45-6.73-3.7-9.27-6.58-2.04-2.46-3.14-5.57-3.1-8.77-.15-4.1,1.67-8.02,4.9-10.55,3.33-2.62,7.67-3.93,13-3.93Z"/><path d="m56,42.59v21.73c-.13,1.89.48,3.76,1.71,5.2,1.19,1.21,2.83,1.86,4.53,1.79,1.6-.02,3.16-.52,4.48-1.43,1.48-1.01,2.67-2.39,3.46-4v-23.29h9.25v35.11h-9.26v-4.77c-3.33,3.63-6.94,5.44-10.83,5.45-3.42.14-6.74-1.21-9.1-3.69-2.37-2.63-3.62-6.08-3.46-9.62v-22.48s9.22,0,9.22,0Z"/><path d="m95.22,25.18v19.66c2.7-1.94,5.96-2.97,9.29-2.93,2.96-.03,5.86.75,8.4,2.27,2.53,1.53,4.56,3.76,5.86,6.41,1.42,2.86,2.14,6.01,2.09,9.2,0,5.76-1.72,10.3-5.15,13.63s-8.13,4.99-14.1,5c-5.36,0-10.66-1.03-15.64-3V25.18s9.25,0,9.25,0Zm0,45.19c2.24.71,4.57,1.05,6.92,1,2.62.1,5.12-1.05,6.75-3.1,1.66-2.07,2.5-4.93,2.5-8.59.15-2.86-.75-5.67-2.52-7.91-1.64-1.97-4.1-3.08-6.66-3-1.21-.02-2.42.23-3.53.71-1.25.59-2.41,1.33-3.46,2.22,0,0,0,18.67,0,18.67Z"/><path d="m135.08,25.18v52.52h-9.24V25.18s9.24,0,9.24,0Z"/><path d="m146.86,26.34c1.39-.01,2.72.54,3.69,1.54,1.01.97,1.57,2.31,1.54,3.71,0,1.37-.55,2.69-1.52,3.66-1.87,2.04-5.03,2.17-7.06.31-.11-.1-.21-.2-.31-.31-1-.96-1.56-2.28-1.56-3.66-.02-1.4.55-2.75,1.58-3.7.95-.99,2.27-1.55,3.64-1.55Zm4.63,16.25v35.11h-9.25v-35.11s9.25,0,9.25,0Z"/><path d="m178.68,41.91c3.4-.15,6.69,1.2,9,3.7,2.32,2.71,3.52,6.2,3.36,9.76v22.33h-9.21v-21.39c.11-1.94-.47-3.86-1.63-5.42-1.09-1.33-2.74-2.07-4.46-2-1.43,0-2.82.45-4,1.26-1.59,1.18-2.98,2.59-4.14,4.19v23.36h-9.25v-35.11h9.25v4.92c1.43-1.78,3.22-3.24,5.25-4.3,1.82-.87,3.81-1.32,5.83-1.3h0Z"/></svg>